<svg xmlns="http://www.w3.org/2000/svg" version="1.1" xmlns:xlink="http://www.w3.org/1999/xlink" width="512" height="512" x="0" y="0" viewBox="0 0 512.026 512.026" style="enable-background:new 0 0 512 512" xml:space="preserve" class=""><g><path d="M511.836 167.591a15 15 0 0 0-10.779-12.069c-75.855-21.421-153.744-.596-205.862 55.05 11.503 38.633 13.781 79.853 5.805 120.126v46.712c158.405-26.635 126.766-137.555 204.378-194.983a15 15 0 0 0 6.458-14.836M12.802 61.778a15 15 0 0 0-7.644 26.158C88.998 168.08 27.633 299.475 241 342.265v96.318c.793 19.902 29.215 19.887 30 0V327.66C304.288 175.78 167.887 35.189 12.802 61.778" fill="#fcfcfc" opacity="1" data-original="#000000" class=""></path></g></svg>