<svg id="Layer_1" enable-background="new 0 0 512 512" height="512" viewBox="0 0 512 512" width="512" xmlns="http://www.w3.org/2000/svg"><g clip-rule="evenodd" fill-rule="evenodd"><path d="m255.68 302.567c31.984 0 57.998-26.013 57.998-57.999 0-31.979-26.02-57.999-57.998-57.999-31.975 0-58 26.024-58 57.999 0 31.982 26.017 57.999 58 57.999zm-57.2 137.931v-9.398h114.408v9.398c0 8.322-6.758 15.08-15.08 15.08h-84.25c-8.318 0-15.078-6.76-15.078-15.08zm93.307 30.172c-.408 13.53-11.541 24.33-25.08 24.33h-22.047c-13.539 0-24.67-10.8-25.08-24.33l-.092-3.09h72.393zm-46.789-132.102v-10.746c0-2.865-2.02-5.32-4.828-5.88-10.123-2.017-19.631-5.966-28.215-11.698-2.377-1.586-5.557-1.274-7.578.746l-7.609 7.604-15.109-15.116 7.6-7.6c2.023-2.022 2.348-5.19.758-7.571-5.729-8.586-9.682-18.098-11.701-28.219-.561-2.804-3.025-4.83-5.885-4.83h-10.742v-21.38h10.742c2.855 0 5.326-2.021 5.885-4.823 2.014-10.125 5.971-19.633 11.701-28.219 1.59-2.382 1.266-5.555-.758-7.577l-7.6-7.601 15.109-15.109 7.609 7.598c2.021 2.018 5.201 2.336 7.578.75 8.582-5.728 18.096-9.682 28.215-11.697 2.807-.559 4.828-3.018 4.828-5.88v-10.751h21.371v10.751c0 2.861 2.018 5.321 4.824 5.88 10.123 2.016 19.635 5.968 28.223 11.696 2.379 1.587 5.551 1.271 7.574-.749l7.609-7.598 15.111 15.111-7.613 7.6c-2.021 2.02-2.33 5.201-.746 7.576 5.729 8.586 9.678 18.096 11.697 28.218.559 2.806 3.029 4.824 5.889 4.824h10.742v21.38h-10.742c-2.861 0-5.328 2.023-5.889 4.83-2.021 10.122-5.965 19.634-11.697 28.219-1.586 2.374-1.275 5.553.746 7.57l7.613 7.6-15.11 15.117-7.609-7.604c-2.023-2.021-5.193-2.335-7.572-.746-8.58 5.734-18.105 9.683-28.225 11.698-2.809.56-4.824 3.017-4.824 5.88v10.746z" fill="#92c3fe"/><path d="m344.189 72.068 19.879-34.439c2.48-4.3 7.979-5.781 12.287-3.291 4.311 2.48 5.785 7.982 3.301 12.293l-19.886 34.437c-1.66 2.891-4.688 4.499-7.799 4.499-1.533 0-3.07-.387-4.494-1.207-4.311-2.48-5.776-7.978-3.288-12.292zm-212.478-25.437c-2.48-4.301-1.014-9.813 3.295-12.293 4.301-2.49 9.803-1.009 12.293 3.291l19.889 34.439c2.479 4.3 1.014 9.812-3.297 12.292-1.414.82-2.961 1.207-4.494 1.207-3.105 0-6.129-1.608-7.797-4.499zm114.967 4.139v-39.772c0-4.969 4.031-8.996 9.002-8.996 4.969 0 9 4.027 9 8.996v39.772c0 4.971-4.031 9.002-9 9.002-4.971-.001-9.002-4.032-9.002-9.002zm218.033 313.259c-1.65 2.891-4.715 4.503-7.826 4.503-1.51 0-3.064-.392-4.479-1.202l-34.439-19.893c-4.311-2.477-5.775-7.988-3.287-12.288 2.48-4.31 7.979-5.78 12.289-3.301l34.443 19.894c4.289 2.475 5.799 7.987 3.299 12.287zm32.959-120.508c0 4.97-4.055 8.996-9.006 8.996h-39.795c-4.961 0-8.992-4.026-8.992-8.996 0-4.975 4.031-9.001 8.992-9.001h39.795c4.951.001 9.006 4.027 9.006 9.001zm-82.99-91.962c-2.488-4.3-1.023-9.807 3.287-12.291l34.439-19.889c4.289-2.48 9.807-1.01 12.305 3.301 2.5 4.3.99 9.812-3.299 12.287l-34.443 19.893c-1.42.811-2.971 1.197-4.49 1.197-3.112 0-6.139-1.608-7.799-4.498zm-159 136.011c-23.713 0-43.002-19.289-43.002-43.002 0-23.707 19.289-43.001 43.002-43.001 23.707 0 43 19.294 43 43.001 0 23.713-19.293 43.002-43 43.002zm0-104c-33.633 0-61 27.37-61 60.998 0 33.643 27.367 60.999 61 60.999 33.641 0 60.998-27.356 60.998-60.999 0-33.628-27.358-60.998-60.998-60.998zm91 68.688v-15.38h-7.742c-4.291 0-7.988-3.032-8.832-7.237-1.938-9.742-5.729-18.869-11.25-27.141-2.375-3.568-1.908-8.321 1.123-11.363l5.488-5.479-10.869-10.868-5.488 5.479c-3.031 3.041-7.789 3.508-11.357 1.121-8.285-5.521-17.414-9.312-27.145-11.25-4.211-.839-7.238-4.531-7.238-8.821v-7.751h-15.371v7.751c0 4.29-3.031 7.982-7.242 8.821-9.736 1.938-18.869 5.729-27.135 11.25-3.57 2.377-8.332 1.92-11.363-1.121l-5.488-5.479-10.871 10.868 5.479 5.479c3.041 3.042 3.51 7.795 1.133 11.363-5.531 8.28-9.322 17.408-11.256 27.141-.838 4.205-4.539 7.237-8.826 7.237h-7.742v15.38h7.742c4.287 0 7.988 3.033 8.826 7.243 1.943 9.728 5.725 18.86 11.256 27.14 2.377 3.569 1.908 8.317-1.133 11.359l-5.479 5.479 10.869 10.873 5.488-5.484c3.031-3.041 7.793-3.498 11.363-1.117 8.279 5.531 17.408 9.313 27.135 11.25 4.211.84 7.242 4.527 7.242 8.822v7.746h15.371v-7.746c0-4.295 3.027-7.982 7.238-8.822 9.73-1.938 18.873-5.729 27.145-11.25 3.568-2.391 8.326-1.924 11.357 1.117l5.488 5.484 10.869-10.873-5.486-5.479c-3.031-3.042-3.498-7.79-1.123-11.359 5.535-8.279 9.313-17.412 11.25-27.14.844-4.21 4.541-7.243 8.832-7.243zm8.996-33.377h-9.656c-1.98-6.982-4.748-13.684-8.303-20.021l6.842-6.841c3.508-3.508 3.508-9.209 0-12.722l-23.6-23.599c-1.688-1.688-3.979-2.641-6.361-2.641-2.391 0-4.682.952-6.369 2.641l-6.842 6.832c-6.338-3.541-13.037-6.323-20.02-8.303v-9.657c0-4.974-4.027-9.001-8.996-9.001h-33.373c-4.971 0-9.002 4.027-9.002 9.001v9.657c-6.988 1.979-13.678 4.762-20.029 8.303l-6.828-6.832c-3.521-3.518-9.209-3.518-12.73 0l-23.6 23.599c-3.512 3.513-3.512 9.214 0 12.722l6.842 6.841c-3.555 6.352-6.332 13.038-8.303 20.021h-9.656c-4.975 0-9.002 4.031-9.002 8.996v33.383c0 4.97 4.027 9.001 9.002 9.001h9.656c1.971 6.979 4.748 13.679 8.303 20.021l-6.842 6.836c-3.512 3.514-3.512 9.214 0 12.73l23.6 23.6c1.693 1.684 3.98 2.631 6.361 2.631 2.391 0 4.676-.947 6.369-2.641l6.828-6.827c6.352 3.55 13.051 6.318 20.029 8.298v9.662c0 4.97 4.031 8.996 9.002 8.996h33.373c4.969 0 8.996-4.026 8.996-8.996v-9.662c6.992-1.979 13.682-4.757 20.029-8.298l6.832 6.827c3.521 3.522 9.209 3.522 12.73 0l23.6-23.599c3.508-3.508 3.508-9.208 0-12.722l-6.842-6.836c3.555-6.342 6.322-13.042 8.303-20.021h9.656c4.975 0 9.002-4.031 9.002-9.001v-33.383c.001-4.964-4.027-8.995-9.001-8.995zm-258.988 116.268c2.488 4.3 1.023 9.812-3.287 12.288l-34.444 19.893c-1.418.811-2.971 1.202-4.488 1.202-3.107 0-6.139-1.612-7.799-4.503-2.49-4.301-1.023-9.813 3.287-12.287l34.443-19.893c4.309-2.48 9.813-1.009 12.288 3.3zm-33.586-82.801h-39.772c-4.975 0-9-4.017-9-9 0-4.971 4.025-8.996 9-8.996h39.771c4.965 0 8.996 4.025 8.996 8.996.001 4.983-4.031 9-8.995 9zm-16.432-129.668c2.48-4.311 7.979-5.781 12.287-3.301l34.443 19.889c4.311 2.484 5.775 7.991 3.287 12.291-1.66 2.891-4.688 4.498-7.799 4.498-1.518 0-3.07-.387-4.488-1.197l-34.443-19.893c-4.311-2.476-5.777-7.988-3.287-12.287zm282.799 245.988c43.521-25.937 70.563-73.488 70.563-124.1 0-79.59-64.752-144.352-144.352-144.352-79.592 0-144.344 64.762-144.344 144.352 0 50.611 27.041 98.163 70.563 124.1 12.441 7.413 19.58 19.969 19.58 34.444v12.985h108.41v-12.985c0-14.485 7.129-27.031 19.58-34.444zm-31.66 83.91h-84.25c-6.656 0-12.08-5.408-12.08-12.08v-6.398h108.41v6.398c0 6.672-5.418 12.08-12.08 12.08zm-31.102 39.422h-22.047c-11.963 0-21.723-9.553-22.08-21.42h66.209c-.359 11.867-10.119 21.42-22.082 21.42zm-11.027-409.781c-89.512 0-162.34 72.83-162.34 162.35 0 28.645 7.559 56.788 21.859 81.42 13.871 23.891 33.75 44.001 57.49 58.141 6.959 4.15 10.787 10.893 10.787 18.983v37.386c0 13.461 8.883 24.872 21.082 28.71v.693c0 22.108 17.988 40.097 40.102 40.097h22.047c22.109 0 40.102-17.988 40.102-40.097v-.693c12.203-3.838 21.082-15.249 21.082-28.71v-37.386c0-8.091 3.828-14.833 10.787-18.983 23.74-14.14 43.619-34.25 57.49-58.141 14.301-24.632 21.859-52.775 21.859-81.42 0-89.52-72.828-162.35-162.347-162.35z" fill="#224eff"/></g></svg>