<svg xmlns="http://www.w3.org/2000/svg" version="1.1" xmlns:xlink="http://www.w3.org/1999/xlink" width="512" height="512" x="0" y="0" viewBox="0 0 512 512" style="enable-background:new 0 0 512 512" xml:space="preserve" class=""><g><g fill-rule="evenodd" clip-rule="evenodd"><path fill="#a6adb6" d="M255.68 302.567c31.984 0 57.998-26.013 57.998-57.999 0-31.979-26.02-57.999-57.998-57.999-31.975 0-58 26.024-58 57.999 0 31.982 26.017 57.999 58 57.999zm-57.2 137.931V431.1h114.408v9.398c0 8.322-6.758 15.08-15.08 15.08h-84.25c-8.318 0-15.078-6.76-15.078-15.08zm93.307 30.172c-.408 13.53-11.541 24.33-25.08 24.33H244.66c-13.539 0-24.67-10.8-25.08-24.33l-.092-3.09h72.393zm-46.789-132.102v-10.746c0-2.865-2.02-5.32-4.828-5.88a78.089 78.089 0 0 1-28.215-11.698 6.013 6.013 0 0 0-7.578.746l-7.609 7.604-15.109-15.116 7.6-7.6a5.996 5.996 0 0 0 .758-7.571 78.23 78.23 0 0 1-11.701-28.219 6.008 6.008 0 0 0-5.885-4.83h-10.742v-21.38h10.742a6.006 6.006 0 0 0 5.885-4.823c2.014-10.125 5.971-19.633 11.701-28.219a6.003 6.003 0 0 0-.758-7.577l-7.6-7.601 15.109-15.109 7.609 7.598a6.016 6.016 0 0 0 7.578.75A78.137 78.137 0 0 1 240.17 167.2a5.995 5.995 0 0 0 4.828-5.88v-10.751h21.371v10.751a5.993 5.993 0 0 0 4.824 5.88c10.123 2.016 19.635 5.968 28.223 11.696a6.007 6.007 0 0 0 7.574-.749l7.609-7.598 15.111 15.111-7.613 7.6a6.012 6.012 0 0 0-.746 7.576 78.211 78.211 0 0 1 11.697 28.218 6.004 6.004 0 0 0 5.889 4.824h10.742v21.38h-10.742a6.009 6.009 0 0 0-5.889 4.83 78.19 78.19 0 0 1-11.697 28.219 6 6 0 0 0 .746 7.57l7.613 7.6-15.11 15.117-7.609-7.604a6 6 0 0 0-7.572-.746 78.058 78.058 0 0 1-28.225 11.698 5.99 5.99 0 0 0-4.824 5.88v10.746z" opacity="1" data-original="#92c3fe" class=""></path><path fill="#ffffff" d="m344.189 72.068 19.879-34.439a8.988 8.988 0 0 1 12.287-3.291c4.311 2.48 5.785 7.982 3.301 12.293L359.77 81.068c-1.66 2.891-4.688 4.499-7.799 4.499a8.951 8.951 0 0 1-4.494-1.207c-4.311-2.48-5.776-7.978-3.288-12.292zM131.711 46.631c-2.48-4.301-1.014-9.813 3.295-12.293 4.301-2.49 9.803-1.009 12.293 3.291l19.889 34.439c2.479 4.3 1.014 9.812-3.297 12.292a8.924 8.924 0 0 1-4.494 1.207 8.985 8.985 0 0 1-7.797-4.499zm114.967 4.139V10.998c0-4.969 4.031-8.996 9.002-8.996 4.969 0 9 4.027 9 8.996V50.77c0 4.971-4.031 9.002-9 9.002-4.971-.001-9.002-4.032-9.002-9.002zm218.033 313.259c-1.65 2.891-4.715 4.503-7.826 4.503a9.032 9.032 0 0 1-4.479-1.202l-34.439-19.893c-4.311-2.477-5.775-7.988-3.287-12.288 2.48-4.31 7.979-5.78 12.289-3.301l34.443 19.894c4.289 2.475 5.799 7.987 3.299 12.287zm32.959-120.508c0 4.97-4.055 8.996-9.006 8.996h-39.795c-4.961 0-8.992-4.026-8.992-8.996 0-4.975 4.031-9.001 8.992-9.001h39.795c4.951.001 9.006 4.027 9.006 9.001zm-82.99-91.962c-2.488-4.3-1.023-9.807 3.287-12.291l34.439-19.889c4.289-2.48 9.807-1.01 12.305 3.301 2.5 4.3.99 9.812-3.299 12.287l-34.443 19.893a9.044 9.044 0 0 1-4.49 1.197c-3.112 0-6.139-1.608-7.799-4.498zm-159 136.011c-23.713 0-43.002-19.289-43.002-43.002 0-23.707 19.289-43.001 43.002-43.001 23.707 0 43 19.294 43 43.001 0 23.713-19.293 43.002-43 43.002zm0-104c-33.633 0-61 27.37-61 60.998 0 33.643 27.367 60.999 61 60.999 33.641 0 60.998-27.356 60.998-60.999 0-33.628-27.358-60.998-60.998-60.998zm91 68.688v-15.38h-7.742a9.012 9.012 0 0 1-8.832-7.237c-1.938-9.742-5.729-18.869-11.25-27.141a9.02 9.02 0 0 1 1.123-11.363l5.488-5.479-10.869-10.868-5.488 5.479a8.982 8.982 0 0 1-11.357 1.121c-8.285-5.521-17.414-9.312-27.145-11.25a8.992 8.992 0 0 1-7.238-8.821v-7.751h-15.371v7.751a8.996 8.996 0 0 1-7.242 8.821 74.994 74.994 0 0 0-27.135 11.25c-3.57 2.377-8.332 1.92-11.363-1.121l-5.488-5.479-10.871 10.868 5.479 5.479a9.006 9.006 0 0 1 1.133 11.363c-5.531 8.28-9.322 17.408-11.256 27.141a9.004 9.004 0 0 1-8.826 7.237h-7.742v15.38h7.742a9.005 9.005 0 0 1 8.826 7.243 75.101 75.101 0 0 0 11.256 27.14A9 9 0 0 1 191.379 298l-5.479 5.479 10.869 10.873 5.488-5.484c3.031-3.041 7.793-3.498 11.363-1.117a74.96 74.96 0 0 0 27.135 11.25 8.994 8.994 0 0 1 7.242 8.822v7.746h15.371v-7.746a8.99 8.99 0 0 1 7.238-8.822 75.128 75.128 0 0 0 27.145-11.25 8.976 8.976 0 0 1 11.357 1.117l5.488 5.484 10.869-10.873-5.486-5.479a9.014 9.014 0 0 1-1.123-11.359 74.907 74.907 0 0 0 11.25-27.14 9.013 9.013 0 0 1 8.832-7.243zm8.996-33.377h-9.656a92.328 92.328 0 0 0-8.303-20.021l6.842-6.841c3.508-3.508 3.508-9.209 0-12.722l-23.6-23.599a9.006 9.006 0 0 0-6.361-2.641 9.003 9.003 0 0 0-6.369 2.641l-6.842 6.832a93.022 93.022 0 0 0-20.02-8.303v-9.657c0-4.974-4.027-9.001-8.996-9.001h-33.373a9 9 0 0 0-9.002 9.001v9.657a93.21 93.21 0 0 0-20.029 8.303l-6.828-6.832a8.997 8.997 0 0 0-12.73 0l-23.6 23.599c-3.512 3.513-3.512 9.214 0 12.722l6.842 6.841a92.17 92.17 0 0 0-8.303 20.021h-9.656c-4.975 0-9.002 4.031-9.002 8.996v33.383a9 9 0 0 0 9.002 9.001h9.656a92.046 92.046 0 0 0 8.303 20.021l-6.842 6.836c-3.512 3.514-3.512 9.214 0 12.73l23.6 23.6a9.024 9.024 0 0 0 6.361 2.631 8.993 8.993 0 0 0 6.369-2.641l6.828-6.827a93.02 93.02 0 0 0 20.029 8.298v9.662c0 4.97 4.031 8.996 9.002 8.996h33.373a8.995 8.995 0 0 0 8.996-8.996v-9.662a93.026 93.026 0 0 0 20.029-8.298l6.832 6.827a8.99 8.99 0 0 0 12.73 0l23.6-23.599c3.508-3.508 3.508-9.208 0-12.722l-6.842-6.836a92.543 92.543 0 0 0 8.303-20.021h9.656a9 9 0 0 0 9.002-9.001v-33.383c.001-4.964-4.027-8.995-9.001-8.995zM96.688 335.149c2.488 4.3 1.023 9.812-3.287 12.288L58.957 367.33a9.043 9.043 0 0 1-4.488 1.202 8.98 8.98 0 0 1-7.799-4.503c-2.49-4.301-1.023-9.813 3.287-12.287L84.4 331.849c4.309-2.48 9.813-1.009 12.288 3.3zm-33.586-82.801H23.33a8.99 8.99 0 0 1-9-9 8.993 8.993 0 0 1 9-8.996h39.771a8.996 8.996 0 0 1 8.996 8.996 8.991 8.991 0 0 1-8.995 9zM46.67 122.68c2.48-4.311 7.979-5.781 12.287-3.301L93.4 139.268c4.311 2.484 5.775 7.991 3.287 12.291-1.66 2.891-4.688 4.498-7.799 4.498a9.045 9.045 0 0 1-4.488-1.197l-34.443-19.893c-4.311-2.476-5.777-7.988-3.287-12.287zm282.799 245.988c43.521-25.937 70.563-73.488 70.563-124.1 0-79.59-64.752-144.352-144.352-144.352-79.592 0-144.344 64.762-144.344 144.352 0 50.611 27.041 98.163 70.563 124.1 12.441 7.413 19.58 19.969 19.58 34.444v12.985h108.41v-12.985c0-14.485 7.129-27.031 19.58-34.444zm-31.66 83.91h-84.25c-6.656 0-12.08-5.408-12.08-12.08V434.1h108.41v6.398c0 6.672-5.418 12.08-12.08 12.08zM266.707 492H244.66c-11.963 0-21.723-9.553-22.08-21.42h66.209C288.43 482.447 278.67 492 266.707 492zM255.68 82.219c-89.512 0-162.34 72.83-162.34 162.35 0 28.645 7.559 56.788 21.859 81.42 13.871 23.891 33.75 44.001 57.49 58.141 6.959 4.15 10.787 10.893 10.787 18.983v37.386c0 13.461 8.883 24.872 21.082 28.71v.693c0 22.108 17.988 40.097 40.102 40.097h22.047c22.109 0 40.102-17.988 40.102-40.097v-.693c12.203-3.838 21.082-15.249 21.082-28.71v-37.386c0-8.091 3.828-14.833 10.787-18.983 23.74-14.14 43.619-34.25 57.49-58.141 14.301-24.632 21.859-52.775 21.859-81.42 0-89.52-72.828-162.35-162.347-162.35z" opacity="1" data-original="#224eff" class=""></path></g></g></svg>