<svg id="Layer_1" height="512" viewBox="0 0 512 512" width="512" xmlns="http://www.w3.org/2000/svg" data-name="Layer 1"><path d="m185.326 63.211h318.674v411.09h-318.674z" fill="#ccc"/><path d="m159.814 37.699h223.108l95.567 95.567v315.523h-318.675z" fill="#e6e6e6" fill-rule="evenodd"/><path d="m382.922 37.699 95.567 95.567h-95.567z" fill="#b3b3b3" fill-rule="evenodd"/><g fill="#7a8c98"><path d="m8 84.448h330.556v85.644h-330.556z"/><path d="m8 204.652h330.556v85.644h-330.556z"/><path d="m8 324.853h330.556v85.644h-330.556z"/></g><path d="m29.463 170.092h287.633v34.56h-287.633z" fill="#465a61"/><path d="m29.463 290.296h287.633v34.56h-287.633z" fill="#465a61"/><path d="m60.869 142.191a14.723 14.723 0 1 0 -14.724-14.723 14.752 14.752 0 0 0 14.724 14.723z" fill="#60b7ff" fill-rule="evenodd"/><path d="m116.739 142.191a14.723 14.723 0 1 0 -14.723-14.723 14.752 14.752 0 0 0 14.723 14.723z" fill="#ffd05a" fill-rule="evenodd"/><circle cx="60.869" cy="247.472" fill="#60b7ff" r="14.723" transform="matrix(1 -.022 .022 1 -5.362 1.381)"/><circle cx="116.739" cy="247.472" fill="#ffd05a" r="14.723" transform="matrix(1 -.022 .022 1 -5.348 2.594)"/><circle cx="60.869" cy="367.673" fill="#60b7ff" r="14.723" transform="matrix(1 -.024 .024 1 -8.729 1.552)"/><circle cx="116.739" cy="367.673" fill="#ffd05a" r="14.723" transform="matrix(1 -.024 .024 1 -8.713 2.881)"/><path d="m60.868 344.95a22.725 22.725 0 1 1 -16.068 6.656 22.654 22.654 0 0 1 16.066-6.656zm350.878-289.74-25.511-25.51h-234.421v46.747h-151.814v101.644h21.463v18.56h-21.463v101.649h21.463v18.557h-21.463v101.643h151.814v38.293h25.512v25.507q167.339.006 334.675 0v-427.09zm47.431 70.056h-68.255v-68.255zm36.823-54.056v395.09h-302.674v-9.511h293.163v-326.836l-58.743-58.743zm-25.511 70.056v299.523h-302.675v-22.289h178.742v-101.648h-21.456v-18.552h21.46v-101.649h-21.46v-18.56h21.46v-101.644h-178.746v-30.747h207.108v95.567zm-454.489 191.586v69.648h314.556v-69.648zm21.463-34.552h271.637v18.557h-271.637zm0-120.2h271.637v18.56h-271.637zm293.093 34.56v69.64h-314.556v-69.649zm0-120.2v69.644h-314.556v-69.657zm-213.816 12.3a22.727 22.727 0 1 1 -16.066 6.656 22.652 22.652 0 0 1 16.066-6.656zm4.754 17.969a6.724 6.724 0 1 1 -4.754-1.969 6.7 6.7 0 0 1 4.754 1.969zm-60.626-17.984a22.725 22.725 0 1 1 -16.068 6.655 22.654 22.654 0 0 1 16.066-6.656zm4.754 17.969a6.722 6.722 0 1 1 -4.754-1.969 6.7 6.7 0 0 1 4.754 1.969zm51.118 102.035a22.727 22.727 0 1 1 -16.066 6.656 22.652 22.652 0 0 1 16.066-6.656zm4.754 17.969a6.724 6.724 0 1 1 -4.754-1.969 6.7 6.7 0 0 1 4.754 1.969zm-60.626-17.969a22.725 22.725 0 1 1 -16.068 6.656 22.654 22.654 0 0 1 16.066-6.656zm4.754 17.969a6.722 6.722 0 1 1 -4.754-1.969 6.7 6.7 0 0 1 4.754 1.969zm51.118 102.232a22.727 22.727 0 1 1 -16.066 6.656 22.652 22.652 0 0 1 16.066-6.656zm4.754 17.969a6.724 6.724 0 1 1 -4.754-1.969 6.7 6.7 0 0 1 4.754 1.969zm-55.872 0a6.722 6.722 0 1 0 1.969 4.754 6.7 6.7 0 0 0 -1.969-4.754z" fill-rule="evenodd"/><path d="m185.326 63.211h318.674v411.09h-318.674z" fill="#ccc"/><path d="m159.814 37.699h223.108l95.567 95.567v315.523h-318.675z" fill="#e6e6e6" fill-rule="evenodd"/><path d="m382.922 37.699 95.567 95.567h-95.567z" fill="#b3b3b3" fill-rule="evenodd"/><path d="m8 84.448h330.556v85.644h-330.556z" fill="#7a8c98"/><path d="m8 204.652h330.556v85.644h-330.556z" fill="#7a8c98"/><path d="m8 324.853h330.556v85.644h-330.556z" fill="#7a8c98"/><path d="m29.463 170.092h287.633v34.56h-287.633z" fill="#465a61"/><path d="m29.463 290.296h287.633v34.56h-287.633z" fill="#465a61"/><path d="m60.869 142.191a14.723 14.723 0 1 0 -14.724-14.723 14.752 14.752 0 0 0 14.724 14.723z" fill="#60b7ff" fill-rule="evenodd"/><path d="m116.739 142.191a14.723 14.723 0 1 0 -14.723-14.723 14.752 14.752 0 0 0 14.723 14.723z" fill="#ffd05a" fill-rule="evenodd"/><circle cx="60.869" cy="247.472" fill="#60b7ff" r="14.723" transform="matrix(1 -.022 .022 1 -5.362 1.381)"/><circle cx="116.739" cy="247.472" fill="#ffd05a" r="14.723" transform="matrix(1 -.022 .022 1 -5.348 2.594)"/><circle cx="60.869" cy="367.673" fill="#60b7ff" r="14.723" transform="matrix(1 -.024 .024 1 -8.729 1.552)"/><circle cx="116.739" cy="367.673" fill="#ffd05a" r="14.723" transform="matrix(1 -.024 .024 1 -8.713 2.881)"/><path d="m60.868 344.95a22.725 22.725 0 1 1 -16.068 6.656 22.654 22.654 0 0 1 16.066-6.656zm350.878-289.74-25.511-25.51h-234.421v46.747h-151.814v101.644h21.463v18.56h-21.463v101.649h21.463v18.557h-21.463v101.643h151.814v38.293h25.512v25.507q167.339.006 334.675 0v-427.09zm47.431 70.056h-68.255v-68.255zm36.823-54.056v395.09h-302.674v-9.511h293.163v-326.836l-58.743-58.743zm-25.511 70.056v299.523h-302.675v-22.289h178.742v-101.648h-21.456v-18.552h21.46v-101.649h-21.46v-18.56h21.46v-101.644h-178.746v-30.747h207.108v95.567zm-454.489 191.586v69.648h314.556v-69.648zm21.463-34.552h271.637v18.557h-271.637zm0-120.2h271.637v18.56h-271.637zm293.093 34.56v69.64h-314.556v-69.649zm0-120.2v69.644h-314.556v-69.657zm-213.816 12.3a22.727 22.727 0 1 1 -16.066 6.656 22.652 22.652 0 0 1 16.066-6.656zm4.754 17.969a6.724 6.724 0 1 1 -4.754-1.969 6.7 6.7 0 0 1 4.754 1.969zm-60.626-17.984a22.725 22.725 0 1 1 -16.068 6.655 22.654 22.654 0 0 1 16.066-6.656zm4.754 17.969a6.722 6.722 0 1 1 -4.754-1.969 6.7 6.7 0 0 1 4.754 1.969zm51.118 102.035a22.727 22.727 0 1 1 -16.066 6.656 22.652 22.652 0 0 1 16.066-6.656zm4.754 17.969a6.724 6.724 0 1 1 -4.754-1.969 6.7 6.7 0 0 1 4.754 1.969zm-60.626-17.969a22.725 22.725 0 1 1 -16.068 6.656 22.654 22.654 0 0 1 16.066-6.656zm4.754 17.969a6.722 6.722 0 1 1 -4.754-1.969 6.7 6.7 0 0 1 4.754 1.969zm51.118 102.232a22.727 22.727 0 1 1 -16.066 6.656 22.652 22.652 0 0 1 16.066-6.656zm4.754 17.969a6.724 6.724 0 1 1 -4.754-1.969 6.7 6.7 0 0 1 4.754 1.969zm-55.872 0a6.722 6.722 0 1 0 1.969 4.754 6.7 6.7 0 0 0 -1.969-4.754z" fill-rule="evenodd"/></svg>