<svg version="1.1" id="Capa_1" xmlns="http://www.w3.org/2000/svg" xmlns:xlink="http://www.w3.org/1999/xlink" x="0px" y="0px" viewBox="0 0 512 512" style="enable-background:new 0 0 512 512;" xml:space="preserve">
<g>
	<g>
		<path style="fill:#8690AF;stroke:#000000;stroke-width:20;stroke-linecap:round;stroke-linejoin:round;stroke-miterlimit:10;" d="&#10;&#9;&#9;&#9;M343.942,283.321l-20-34.641h0C302.634,260.981,276,245.604,276,221h-40c0,24.604-26.635,39.981-47.942,27.679h0l-20,34.641&#10;&#9;&#9;&#9;c21.308,12.302,21.308,43.057,0,55.359l20,34.641l0,0C209.365,361.019,236,376.396,236,401v0h40v0&#10;&#9;&#9;&#9;c0-24.604,26.635-39.981,47.942-27.679l0,0l20-34.641C322.635,326.378,322.635,295.622,343.942,283.321z M256,341&#10;&#9;&#9;&#9;c-16.569,0-30-13.431-30-30s13.431-30,30-30s30,13.431,30,30S272.569,341,256,341z"/>
		<path style="fill:#D5EA79;stroke:#000000;stroke-width:20;stroke-linecap:round;stroke-linejoin:round;stroke-miterlimit:10;" d="&#10;&#9;&#9;&#9;M211,165h-25v-5c0-38.66,31.34-70,70-70h0c38.66,0,70,31.34,70,70v5h-25"/>
		<path style="fill:#FF9EB1;stroke:#000000;stroke-width:20;stroke-linecap:round;stroke-linejoin:round;stroke-miterlimit:10;" d="&#10;&#9;&#9;&#9;M502,502H362v-5c0-38.66,31.34-70,70-70h0c38.66,0,70,31.34,70,70V502z"/>
		<path style="fill:#FFDA8F;stroke:#000000;stroke-width:20;stroke-linecap:round;stroke-linejoin:round;stroke-miterlimit:10;" d="&#10;&#9;&#9;&#9;M150,502H10v-5c0-38.66,31.34-70,70-70h0c38.66,0,70,31.34,70,70V502z"/>
		
			<circle style="fill:#BB6B58;stroke:#000000;stroke-width:20;stroke-linecap:round;stroke-linejoin:round;stroke-miterlimit:10;" cx="80" cy="387" r="40"/>
		
			<circle style="fill:#FFDCD5;stroke:#000000;stroke-width:20;stroke-linecap:round;stroke-linejoin:round;stroke-miterlimit:10;" cx="432" cy="387" r="40"/>
		<path style="fill:none;stroke:#000000;stroke-width:20;stroke-linecap:round;stroke-linejoin:round;stroke-miterlimit:10;" d="&#10;&#9;&#9;&#9;M189.16,470.905C210.276,477.465,232.725,481,256,481s45.724-3.535,66.84-10.095"/>
		<path style="fill:none;stroke:#000000;stroke-width:20;stroke-linecap:round;stroke-linejoin:round;stroke-miterlimit:10;" d="&#10;&#9;&#9;&#9;M176.184,45.568C91.319,77.775,31,159.843,31,256c0,21.361,2.977,42.027,8.538,61.605"/>
		<path style="fill:none;stroke:#000000;stroke-width:20;stroke-linecap:round;stroke-linejoin:round;stroke-miterlimit:10;" d="&#10;&#9;&#9;&#9;M472.462,317.605C478.023,298.027,481,277.361,481,256c0-96.157-60.319-178.225-145.184-210.432"/>
		
			<circle style="fill:#F5C6AF;stroke:#000000;stroke-width:20;stroke-linecap:round;stroke-linejoin:round;stroke-miterlimit:10;" cx="256" cy="50" r="40"/>
	</g>
	<g>
		
			<rect x="256" y="165" style="fill:none;stroke:#000000;stroke-width:20;stroke-linecap:round;stroke-linejoin:round;stroke-miterlimit:10;" width="0" height="0"/>
	</g>
</g>
<g>
</g>
<g>
</g>
<g>
</g>
<g>
</g>
<g>
</g>
<g>
</g>
<g>
</g>
<g>
</g>
<g>
</g>
<g>
</g>
<g>
</g>
<g>
</g>
<g>
</g>
<g>
</g>
<g>
</g>
</svg>