<svg id="Icons" viewBox="0 0 60 60" xmlns="http://www.w3.org/2000/svg"><path d="m6 57h-3a2.006 2.006 0 0 1 -2-2v-11a5 5 0 0 1 5-5h.77z" fill="#aebdcc"/><path d="m19 33h10v6h-10z" fill="#aebdcc"/><path d="m28 5v1h-8v-1a4 4 0 0 1 8 0z" fill="#aebdcc"/><path d="m6 14v11h-1a4 4 0 0 1 -4-4v-3a4 4 0 0 1 4-4z" fill="#aebdcc"/><path d="m43 14a4 4 0 0 1 4 4v3a3.98 3.98 0 0 1 -2.17 3.55l-2.83 1.45v-12z" fill="#aebdcc"/><path d="m43 24.13v-11.13a8 8 0 0 0 -8-8h-22a8 8 0 0 0 -8 8v13a8 8 0 0 0 8 8h15" fill="#e3ebf4"/><path d="m38.92 25.84a3.862 3.862 0 0 0 .08-.84v-11a5 5 0 0 0 -5-5h-20a5 5 0 0 0 -5 5v11a5 5 0 0 0 5 5h14z" fill="#4c99a5"/><circle cx="16.5" cy="16.5" fill="#8feeff" r="3.5"/><circle cx="31.5" cy="16.5" fill="#8feeff" r="3.5"/><path d="m27.317 22a.664.664 0 0 1 .671.768 4.076 4.076 0 0 1 -7.976 0 .664.664 0 0 1 .671-.768z" fill="#8feeff"/><path d="m28.02 38h-19.02a3 3 0 0 0 -3 3v16h33.54z" fill="#e3ebf4"/><path d="m10 57v-14a1 1 0 0 1 1-1h17.52l11.02 15z" fill="#4c99a5"/><path d="m59 28.67v8.43a22.762 22.762 0 0 1 -11.66 19.968l-3.2 1.759a1.269 1.269 0 0 1 -1.28 0l-3.2-1.759a22.762 22.762 0 0 1 -11.66-19.968v-8.43a1.205 1.205 0 0 1 1.15-1.22c7.56-.21 12.24-2.44 13.79-3.3a1.12 1.12 0 0 1 1.12 0c.2.11.46.25.77.4a31.585 31.585 0 0 0 13.02 2.9 1.205 1.205 0 0 1 1.15 1.22z" fill="#276d82"/><path d="m41.588 53.563a18.719 18.719 0 0 1 -9.588-16.463v-4.916a1 1 0 0 1 .9-.99 35.013 35.013 0 0 0 10.2-2.663.975.975 0 0 1 .807 0 34.813 34.813 0 0 0 10.193 2.669 1 1 0 0 1 .9.992v4.908a18.719 18.719 0 0 1 -9.588 16.464l-1.431.786a1 1 0 0 1 -.964 0z" fill="#78dbdd"/><g fill="#373737"><path d="m21 16.5a4.5 4.5 0 1 0 -4.5 4.5 4.505 4.505 0 0 0 4.5-4.5zm-4.5 2.5a2.5 2.5 0 1 1 2.5-2.5 2.5 2.5 0 0 1 -2.5 2.5z"/><path d="m31.5 12a4.5 4.5 0 1 0 4.5 4.5 4.505 4.505 0 0 0 -4.5-4.5zm0 7a2.5 2.5 0 1 1 2.5-2.5 2.5 2.5 0 0 1 -2.5 2.5z"/><path d="m27.317 21h-6.634a1.692 1.692 0 0 0 -1.31.618 1.62 1.62 0 0 0 -.343 1.343 5.077 5.077 0 0 0 9.94 0 1.62 1.62 0 0 0 -.343-1.343 1.692 1.692 0 0 0 -1.31-.618zm-3.317 4a3.066 3.066 0 0 1 -2.89-2h5.78a3.066 3.066 0 0 1 -2.89 2z"/><path d="m3 58h36.282l3.078 1.693a2.292 2.292 0 0 0 1.145.31 2.22 2.22 0 0 0 1.116-.3l3.2-1.76a23.716 23.716 0 0 0 12.179-20.843v-3.1a1 1 0 0 0 -2 0v3.1a21.719 21.719 0 0 1 -11.142 19.091l-3.218 1.77a.28.28 0 0 1 -.3-.01l-3.2-1.76a21.718 21.718 0 0 1 -11.14-19.091v-8.43a.208.208 0 0 1 .178-.22 31.6 31.6 0 0 0 14.26-3.431.125.125 0 0 1 .142.009c.212.116.487.265.808.419a32.641 32.641 0 0 0 13.431 3 .208.208 0 0 1 .181.22v1.333a1 1 0 0 0 2 0v-1.33a2.2 2.2 0 0 0 -2.123-2.22 32.115 32.115 0 0 1 -11.132-2.15 4.959 4.959 0 0 0 1.255-3.3v-3a5.009 5.009 0 0 0 -4-4.9v-.1a9.01 9.01 0 0 0 -9-9h-6.1a5 5 0 0 0 -9.8 0h-6.1a9.01 9.01 0 0 0 -9 9v.1a5.009 5.009 0 0 0 -4 4.9v3a5.009 5.009 0 0 0 4 4.9v.1a9.01 9.01 0 0 0 9 9h5v2h-9a3.962 3.962 0 0 0 -2.618 1h-.382a6.006 6.006 0 0 0 -6 6v11a3 3 0 0 0 3 3zm33.224-2h-25.224v-13h16.739a23.643 23.643 0 0 0 8.485 13zm-7.1-29.55a2.2 2.2 0 0 0 -2.124 2.22v.33h-13a4 4 0 0 1 -4-4v-11a4 4 0 0 1 4-4h20a4 4 0 0 1 4 4v11 .09a34.242 34.242 0 0 1 -8.88 1.36zm16.876-8.45v3a2.973 2.973 0 0 1 -1.218 2.4c-.081-.044-.163-.087-.225-.122a2.215 2.215 0 0 0 -.557-.214v-7.88a3 3 0 0 1 2 2.816zm-22-16a3 3 0 0 1 2.816 2h-5.632a3 3 0 0 1 2.816-2zm-22 19v-3a3 3 0 0 1 2-2.816v8.632a3 3 0 0 1 -2-2.816zm4 5v-13a7.009 7.009 0 0 1 7-7h22a7.009 7.009 0 0 1 7 7v10.517a21.449 21.449 0 0 1 -2 .889v-10.406a6.006 6.006 0 0 0 -6-6h-20a6.006 6.006 0 0 0 -6 6v11a6.006 6.006 0 0 0 6 6h13v2h-14a7.009 7.009 0 0 1 -7-7zm14 9h7v2h-7zm-13 6a2 2 0 0 1 2-2h18.082c.053.674.138 1.34.246 2h-16.328a2 2 0 0 0 -2 2v13h-2zm-5 3a4 4 0 0 1 3.108-3.892 3.974 3.974 0 0 0 -.108.892v15h-2a1 1 0 0 1 -1-1z"/><path d="m44.31 27.619a1.969 1.969 0 0 0 -1.622 0 33.979 33.979 0 0 1 -9.9 2.583 2 2 0 0 0 -1.788 1.982v4.916a19.717 19.717 0 0 0 10.1 17.339l1.427.786a1.989 1.989 0 0 0 1.931 0l1.431-.788a19.717 19.717 0 0 0 10.111-17.337v-4.912a2 2 0 0 0 -1.786-1.988 33.73 33.73 0 0 1 -9.904-2.581zm9.69 9.481a17.721 17.721 0 0 1 -9.07 15.588l-1.431.786-1.429-.786a17.721 17.721 0 0 1 -9.07-15.588l.013-4.912a35.913 35.913 0 0 0 10.481-2.742 35.707 35.707 0 0 0 10.506 2.742z"/><path d="m39.707 43.293a1 1 0 0 0 -1.414 1.414l2 2a1 1 0 0 0 .707.293.844.844 0 0 0 .087 0 1 1 0 0 0 .732-.423l7-10a1 1 0 1 0 -1.638-1.146l-6.317 9.019z"/></g></svg>